<svg xmlns="http://www.w3.org/2000/svg" width="197" height="59" fill="none" viewBox="0 0 197 59">
    <path fill="#A6A6A6" d="M181.312 0H15.697c-.604 0-1.2 0-1.802.003-.505.003-1.005.012-1.513.019-1.106.011-2.209.097-3.3.258-1.088.163-2.143.472-3.129.914-.984.447-1.883 1.027-2.664 1.72-.786.691-1.441 1.49-1.94 2.366-.5.874-.847 1.81-1.029 2.777C.137 9.023.038 10 .025 10.98c-.015.447-.017.896-.025 1.344v33.73c.008.452.01.891.025 1.345.013.979.112 1.955.295 2.92.181.968.528 1.905 1.029 2.78.499.873 1.154 1.668 1.94 2.355.778.696 1.678 1.277 2.664 1.72.986.444 2.04.755 3.13.92 1.09.16 2.193.246 3.299.259.508.01 1.008.016 1.513.016.602.002 1.198.002 1.802.002h165.615c.592 0 1.193 0 1.785-.002.501 0 1.016-.006 1.517-.016 1.104-.012 2.204-.099 3.293-.258 1.093-.168 2.151-.478 3.141-.92.986-.444 1.885-1.025 2.663-1.72.784-.69 1.44-1.486 1.945-2.356.497-.875.841-1.812 1.019-2.78.184-.965.286-1.941.306-2.92.006-.454.006-.893.006-1.346.013-.53.013-1.057.013-1.596v-30.54c0-.535 0-1.065-.013-1.593 0-.448 0-.897-.006-1.344-.02-.98-.122-1.956-.306-2.922-.179-.966-.522-1.902-1.019-2.777-1.016-1.755-2.628-3.184-4.608-4.086-.99-.441-2.048-.75-3.141-.915-1.088-.16-2.189-.247-3.293-.258-.501-.007-1.016-.015-1.517-.018C182.505 0 181.904 0 181.312 0z"/>
    <path fill="#000" d="M13.71 57.151c-.503 0-.994-.006-1.493-.016-1.033-.011-2.064-.091-3.084-.238-.95-.145-1.872-.415-2.733-.801-.854-.383-1.632-.885-2.305-1.487-.684-.595-1.252-1.285-1.684-2.042-.437-.763-.74-1.58-.896-2.423-.17-.907-.262-1.824-.275-2.742-.01-.309-.024-1.336-.024-1.336V12.285s.014-1.011.024-1.308c.013-.918.104-1.833.273-2.738.158-.846.46-1.665.897-2.43.43-.757.996-1.448 1.675-2.045.678-.602 1.459-1.107 2.314-1.495.86-.385 1.779-.653 2.728-.795 1.023-.149 2.058-.229 3.095-.24l1.488-.018h169.571l1.507.018c1.027.011 2.052.09 3.066.238.959.144 1.888.414 2.757.801 1.713.782 3.106 2.02 3.985 3.54.43.759.728 1.572.883 2.41.171.913.267 1.835.287 2.76.005.414.005.86.005 1.302.013.548.013 1.07.013 1.597v30.605c0 .531 0 1.05-.013 1.572 0 .476 0 .911-.007 1.36-.019.908-.113 1.814-.282 2.71-.154.85-.454 1.674-.891 2.442-.435.75-1 1.434-1.676 2.027-.674.605-1.453 1.11-2.309 1.495-.866.389-1.794.66-2.752.804-1.02.148-2.051.227-3.084.239-.483.01-.989.015-1.481.015l-1.788.003-167.792-.003z"/>
    <path fill="#fff" d="M38.47 29.625c.015-1.218.349-2.412.968-3.471.62-1.06 1.506-1.95 2.575-2.588-.679-.941-1.575-1.716-2.617-2.262-1.042-.547-2.201-.85-3.385-.886-2.526-.257-4.974 1.466-6.261 1.466-1.312 0-3.294-1.44-5.428-1.398-1.38.043-2.725.433-3.904 1.13-1.179.698-2.151 1.68-2.823 2.85-2.909 4.887-.739 12.068 2.047 16.017 1.394 1.935 3.024 4.095 5.156 4.018 2.086-.084 2.865-1.29 5.383-1.29 2.495 0 3.226 1.29 5.4 1.242 2.24-.036 3.65-1.943 4.995-3.895 1.002-1.378 1.772-2.901 2.284-4.513-1.3-.534-2.41-1.427-3.191-2.569-.781-1.141-1.198-2.48-1.2-3.85zM34.36 17.82c1.22-1.422 1.822-3.25 1.677-5.094-1.865.19-3.588 1.054-4.825 2.421-.604.668-1.068 1.445-1.363 2.287-.295.841-.416 1.731-.357 2.618.933.01 1.856-.186 2.699-.573.843-.387 1.585-.954 2.17-1.66zM69.703 39.604h-7.119l-1.71 4.898H57.86l6.743-18.121h3.133l6.743 18.12h-3.066l-1.709-4.897zm-6.381-2.26h5.643l-2.782-7.95h-.078l-2.783 7.95zM89.041 37.898c0 4.105-2.265 6.743-5.683 6.743-.865.044-1.726-.15-2.484-.558-.758-.41-1.382-1.017-1.8-1.753h-.065v6.543h-2.795V31.291h2.706v2.198h.051c.438-.734 1.072-1.338 1.836-1.75.763-.41 1.627-.614 2.5-.586 3.456 0 5.734 2.65 5.734 6.745zm-2.873 0c0-2.675-1.425-4.434-3.598-4.434-2.136 0-3.572 1.796-3.572 4.434 0 2.662 1.436 4.444 3.572 4.444 2.174 0 3.598-1.745 3.598-4.444zM104.028 37.898c0 4.105-2.264 6.743-5.682 6.743-.866.044-1.727-.15-2.485-.558-.758-.41-1.381-1.017-1.8-1.753h-.064v6.543h-2.795V31.291h2.705v2.198h.052c.437-.734 1.071-1.338 1.835-1.75.763-.41 1.627-.614 2.5-.586 3.456 0 5.734 2.65 5.734 6.745zm-2.873 0c0-2.675-1.424-4.434-3.598-4.434-2.136 0-3.572 1.796-3.572 4.434 0 2.662 1.436 4.444 3.572 4.444 2.174 0 3.598-1.745 3.598-4.444zM113.933 39.453c.208 1.797 2.007 2.977 4.465 2.977 2.356 0 4.051-1.18 4.051-2.8 0-1.407-1.022-2.249-3.442-2.826l-2.421-.566c-3.43-.803-5.022-2.36-5.022-4.885 0-3.126 2.809-5.274 6.796-5.274 3.947 0 6.652 2.148 6.743 5.274h-2.821c-.169-1.808-1.71-2.9-3.961-2.9-2.252 0-3.793 1.105-3.793 2.712 0 1.281.984 2.035 3.392 2.612l2.057.49c3.832.88 5.424 2.373 5.424 5.024 0 3.39-2.783 5.513-7.21 5.513-4.142 0-6.938-2.073-7.119-5.35h2.861zM131.434 28.164v3.127h2.589v2.147h-2.589v7.284c0 1.131.518 1.658 1.656 1.658.308-.005.615-.026.92-.062v2.134c-.512.093-1.032.135-1.553.126-2.756 0-3.832-1.005-3.832-3.567v-7.573h-1.979v-2.147h1.979v-3.127h2.809zM135.522 37.898c0-4.157 2.524-6.77 6.459-6.77 3.948 0 6.459 2.613 6.459 6.77 0 4.168-2.498 6.769-6.459 6.769-3.96 0-6.459-2.6-6.459-6.77zm10.07 0c0-2.852-1.347-4.535-3.611-4.535-2.265 0-3.611 1.696-3.611 4.535 0 2.863 1.346 4.533 3.611 4.533 2.264 0 3.611-1.67 3.611-4.533zM150.745 31.29h2.665v2.25h.065c.18-.703.605-1.323 1.201-1.758.596-.435 1.329-.657 2.074-.63.323 0 .644.034.958.102v2.537c-.407-.121-.831-.176-1.256-.164-.406-.016-.811.053-1.186.203-.376.15-.714.378-.991.666-.276.29-.485.633-.612 1.007-.127.375-.169.772-.123 1.163v7.837h-2.795V31.29zM170.595 40.623c-.376 2.398-2.784 4.044-5.864 4.044-3.961 0-6.419-2.575-6.419-6.706 0-4.144 2.471-6.832 6.302-6.832 3.767 0 6.136 2.51 6.136 6.517v.929h-9.617v.164c-.044.486.018.976.184 1.437.166.46.431.882.777 1.236.347.354.767.632 1.233.816.465.185.966.27 1.469.253.661.06 1.323-.089 1.89-.423.567-.335 1.007-.838 1.255-1.435h2.654zm-9.449-3.944h6.808c.025-.437-.043-.874-.201-1.285-.157-.41-.4-.784-.714-1.1-.314-.314-.691-.563-1.108-.73-.418-.166-.866-.247-1.317-.238-.455-.002-.906.083-1.328.25-.421.167-.804.414-1.126.726-.322.312-.578.682-.752 1.09-.174.408-.263.846-.262 1.287zM62.971 12.741c.586-.04 1.174.045 1.722.252.547.206 1.04.528 1.445.942.404.414.708.91.89 1.451.183.542.24 1.116.166 1.682 0 2.781-1.55 4.38-4.223 4.38H59.73v-8.707h3.241zm-1.848 7.476h1.692c.42.024.838-.042 1.227-.195.389-.152.738-.387 1.021-.687.284-.3.495-.658.618-1.047.123-.389.155-.8.094-1.203.057-.4.021-.809-.104-1.195s-.336-.74-.62-1.038c-.282-.298-.63-.531-1.016-.683-.387-.152-.803-.22-1.22-.197h-1.692v6.245zM68.768 18.16c-.043-.431.008-.867.15-1.279.14-.411.369-.79.67-1.11.3-.322.667-.578 1.076-.754.409-.175.85-.266 1.298-.266.447 0 .89.09 1.298.266.409.176.775.432 1.076.753.3.321.529.7.67 1.111.141.412.192.848.15 1.28.043.432-.007.868-.148 1.28-.14.413-.369.792-.67 1.113-.3.322-.667.579-1.077.755-.409.176-.852.267-1.3.267-.447 0-.89-.091-1.299-.267-.409-.176-.776-.433-1.077-.755-.3-.321-.528-.7-.67-1.113-.14-.412-.19-.848-.147-1.28zm5.013 0c0-1.424-.66-2.257-1.817-2.257-1.162 0-1.815.833-1.815 2.257 0 1.436.653 2.263 1.815 2.263 1.157 0 1.817-.833 1.817-2.263zM83.647 21.449H82.26l-1.4-4.84h-.106l-1.393 4.84h-1.374l-1.866-6.571h1.355l1.213 5.014h.1l1.393-5.014h1.282l1.392 5.014h.106l1.207-5.014h1.337l-1.86 6.57zM87.076 14.877h1.287v1.044h.1c.17-.375.455-.689.817-.899.362-.21.783-.305 1.204-.271.33-.024.66.024.968.14.308.117.584.3.81.535.224.235.392.515.49.822.098.306.124.63.076.947v4.253H91.49V17.52c0-1.056-.473-1.58-1.461-1.58-.224-.011-.447.026-.655.107-.207.082-.394.206-.548.364-.154.158-.27.347-.342.553-.071.206-.096.424-.072.64v3.844h-1.337v-6.57zM94.957 12.313h1.337v9.135h-1.337v-9.136zM98.152 18.16c-.042-.431.009-.867.15-1.279.141-.411.37-.79.67-1.11.3-.322.667-.578 1.076-.754.409-.175.851-.266 1.298-.266.448 0 .89.09 1.299.266.409.176.775.432 1.076.753.301.321.529.7.67 1.111.141.412.192.848.15 1.28.043.432-.007.868-.148 1.28-.141.413-.369.792-.67 1.113-.301.322-.668.579-1.077.755-.409.176-.852.267-1.3.267-.447 0-.89-.091-1.299-.267-.41-.176-.776-.433-1.077-.755-.3-.321-.53-.7-.67-1.113-.14-.412-.191-.848-.148-1.28zm5.013 0c0-1.424-.659-2.257-1.817-2.257-1.161 0-1.815.833-1.815 2.257 0 1.436.654 2.263 1.815 2.263 1.158 0 1.817-.832 1.817-2.262zM105.948 19.59c0-1.182.907-1.864 2.519-1.961l1.834-.103v-.567c0-.694-.473-1.086-1.386-1.086-.746 0-1.263.266-1.412.73h-1.294c.137-1.128 1.231-1.852 2.767-1.852 1.698 0 2.656.82 2.656 2.208v4.49h-1.287v-.924h-.106c-.214.332-.516.602-.873.783-.357.181-.758.267-1.161.249-.284.029-.571 0-.843-.086s-.523-.226-.735-.411c-.213-.186-.383-.412-.5-.665-.117-.253-.178-.527-.179-.805zm4.353-.561v-.55l-1.654.103c-.932.06-1.355.369-1.355.948 0 .591.528.935 1.255.935.214.021.429 0 .633-.06.205-.062.395-.163.558-.297.164-.134.298-.299.395-.484.096-.185.154-.388.168-.595zM113.388 18.16c0-2.076 1.1-3.391 2.811-3.391.424-.02.844.079 1.211.283.368.204.669.506.866.87h.1v-3.61h1.337v9.136h-1.281V20.41h-.106c-.213.361-.524.66-.898.861-.375.202-.8.301-1.229.286-1.722 0-2.811-1.316-2.811-3.397zm1.381 0c0 1.394.677 2.233 1.809 2.233 1.127 0 1.823-.851 1.823-2.227 0-1.37-.703-2.232-1.823-2.232-1.125 0-1.809.844-1.809 2.226zM125.243 18.16c-.043-.431.008-.867.149-1.279.141-.411.37-.79.67-1.11.301-.322.667-.578 1.076-.754.409-.175.851-.266 1.298-.266.448 0 .89.09 1.299.266.408.176.775.432 1.076.753.3.321.529.7.67 1.111.141.412.192.848.149 1.28.044.432-.007.868-.147 1.28-.141.413-.369.792-.67 1.113-.301.322-.668.579-1.077.755-.409.176-.852.267-1.3.267-.447 0-.89-.091-1.299-.267-.409-.176-.776-.433-1.077-.755-.301-.321-.529-.7-.67-1.113-.14-.412-.191-.848-.147-1.28zm5.013 0c0-1.424-.66-2.257-1.817-2.257-1.162 0-1.816.833-1.816 2.257 0 1.436.654 2.263 1.816 2.263 1.157 0 1.817-.833 1.817-2.263zM133.423 14.877h1.287v1.044h.1c.169-.375.455-.689.817-.899.363-.21.783-.305 1.204-.271.329-.024.66.024.968.14.308.117.584.3.81.535.225.235.392.515.491.822.098.306.123.63.075.947v4.253h-1.337V17.52c0-1.056-.472-1.58-1.461-1.58-.224-.011-.447.026-.655.107-.207.082-.394.206-.548.364-.154.158-.27.347-.342.553-.071.206-.096.424-.072.64v3.844h-1.337v-6.57zM146.728 13.241v1.666h1.467V16h-1.467v3.38c0 .688.292.989.957.989.171 0 .341-.01.51-.03v1.08c-.24.042-.483.064-.727.066-1.487 0-2.078-.507-2.078-1.774V16h-1.076v-1.093h1.076v-1.666h1.338zM150.021 12.313h1.324v3.62h.106c.178-.378.471-.694.841-.905.369-.21.797-.305 1.224-.271.328-.018.656.035.96.155.304.12.577.303.8.537.223.234.39.513.489.817.099.303.127.625.083.94v4.243h-1.337v-3.923c0-1.05-.504-1.581-1.449-1.581-.229-.018-.46.012-.677.09-.216.077-.412.2-.575.358-.162.159-.287.35-.365.56-.078.21-.108.435-.088.658v3.837h-1.336v-9.136zM163.642 19.675c-.182.6-.575 1.12-1.112 1.467-.536.348-1.182.501-1.823.434-.446.011-.889-.072-1.299-.243-.41-.172-.777-.428-1.074-.75-.298-.323-.52-.705-.65-1.119-.13-.414-.166-.851-.105-1.28-.06-.43-.023-.868.107-1.283.13-.416.351-.8.647-1.125.296-.325.66-.585 1.069-.762.409-.177.852-.267 1.299-.263 1.885 0 3.021 1.25 3.021 3.313v.452h-4.782v.073c-.021.24.011.484.092.712.081.23.211.439.381.616s.376.318.605.414c.229.095.476.143.726.14.32.038.643-.018.93-.16.287-.142.524-.363.681-.636h1.287zm-4.702-2.118h3.421c.017-.22-.014-.442-.091-.65-.076-.209-.197-.399-.354-.56-.157-.16-.347-.286-.557-.371-.211-.085-.437-.126-.665-.121-.231-.003-.461.04-.675.124-.214.084-.408.21-.572.368-.163.159-.292.348-.379.555-.087.208-.131.43-.128.655z"/>
</svg>
