<svg id="Layer_1" data-name="Layer 1" xmlns="http://www.w3.org/2000/svg" width="50" height="50" viewBox="0 0 50 50"><defs><style>.cls-1,.cls-2{fill:#011831;}.cls-1{fill-rule:evenodd;}</style></defs><path class="cls-1" d="M8.52,30A2.48,2.48,0,0,0,6.77,34.2a2.46,2.46,0,0,0,2.69.54,2.44,2.44,0,0,0,1.11-.92A2.48,2.48,0,0,0,8.52,30Zm0,3.31a.81.81,0,0,1-.46-.14.86.86,0,0,1-.31-.37.87.87,0,0,1,0-.48.85.85,0,0,1,.22-.42.9.9,0,0,1,.43-.23.85.85,0,0,1,.47.05A.8.8,0,0,1,9.2,32a.81.81,0,0,1,.14.46A.84.84,0,0,1,9.1,33,.8.8,0,0,1,8.52,33.27Zm21.15-2.89A2.52,2.52,0,0,1,31.05,30a2.48,2.48,0,0,1,1.74.73,2.52,2.52,0,0,1,.73,1.76,2.46,2.46,0,0,1-.42,1.37,2.49,2.49,0,0,1-1.11.92,2.42,2.42,0,0,1-1.43.14,2.46,2.46,0,0,1-1.94-2,2.42,2.42,0,0,1,.14-1.43,2.44,2.44,0,0,1,.91-1.12Zm.92,2.75a.8.8,0,0,0,.45.14.82.82,0,0,0,.59-.24.84.84,0,0,0,.24-.58.81.81,0,0,0-.14-.46.8.8,0,0,0-.37-.31.81.81,0,0,0-.9.18.85.85,0,0,0-.22.42.79.79,0,0,0,0,.48A.86.86,0,0,0,30.59,33.13Z"/><path class="cls-2" d="M11.26,34.93H28.85a.82.82,0,0,1,.82.82.87.87,0,0,1-.24.59.84.84,0,0,1-.58.24H11.26a.83.83,0,0,1-.58-.24.87.87,0,0,1-.24-.59.83.83,0,0,1,.24-.58.78.78,0,0,1,.58-.24Z"/><path class="cls-1" d="M44.23,12.87h5a.82.82,0,0,1,.82.83V17a.82.82,0,0,1-.82.83H46.7a4.62,4.62,0,0,1,1.1,3V33a.82.82,0,0,1-.82.82H42a.8.8,0,0,1-.58-.24.83.83,0,0,1-.24-.58V30.52H37.36v12.4a.87.87,0,0,1-.24.59.83.83,0,0,1-.58.24H31.59a.84.84,0,0,1-.58-.24.87.87,0,0,1-.24-.59V40.44h-22v2.48a.87.87,0,0,1-.24.59.83.83,0,0,1-.58.24H3a.82.82,0,0,1-.82-.83V30.79a4.62,4.62,0,0,1,1.1-3H.82a.83.83,0,0,1-.58-.24A.87.87,0,0,1,0,26.93V23.62a.84.84,0,0,1,.82-.83H5.77a.79.79,0,0,1,.58.25.78.78,0,0,1,.24.58v1.74L9.4,18.11a3,3,0,0,1,1-1.35V13.7a.87.87,0,0,1,.24-.59.83.83,0,0,1,.58-.24h5a.83.83,0,0,1,.58.24.87.87,0,0,1,.24.59v1.73l2.81-7.24A2.92,2.92,0,0,1,21,6.78a3,3,0,0,1,1.71-.53H37.78A3,3,0,0,1,40.6,8.19l2.8,7.24V13.7a.83.83,0,0,1,.25-.59.83.83,0,0,1,.58-.24ZM21.88,8.14a1.37,1.37,0,0,0-.5.64l-2.87,7.4H41.93l-2.87-7.4a1.44,1.44,0,0,0-.5-.64,1.35,1.35,0,0,0-.78-.23H22.66a1.35,1.35,0,0,0-.78.23Zm-9.79,6.38v1.66h3.3V14.52Zm-.65,3.55a1.44,1.44,0,0,0-.5.64L8.07,26.1H31.49l-2.87-7.39a1.36,1.36,0,0,0-1.28-.88H12.22a1.43,1.43,0,0,0-.78.24Zm23.18,6.38V26.1h3.29V24.45ZM5,24.45H1.65V26.1H5ZM32.42,42.1h3.29V30.79a3.06,3.06,0,0,0-.88-2.14,3,3,0,0,0-2.14-.89H7.42a.87.87,0,0,1-.28-.05.81.81,0,0,1-.27.05,3,3,0,0,0-2.14.89,3.06,3.06,0,0,0-.88,2.14V42.1H7.14V39.62A.82.82,0,0,1,8,38.79H31.59a.82.82,0,0,1,.83.83Zm10.44-9.93h3.29V20.86a3.06,3.06,0,0,0-.88-2.14,3,3,0,0,0-2.14-.89H30l0,.09.09.19L33,25.36V23.62a.78.78,0,0,1,.24-.58.79.79,0,0,1,.58-.25h5a.77.77,0,0,1,.3.06,1.84,1.84,0,0,1,0-.33,2.52,2.52,0,0,1,.42-1.38,2.49,2.49,0,0,1,1.11-.92A2.58,2.58,0,0,1,42,20.08a2.48,2.48,0,1,1-1.56,4.67,2.47,2.47,0,0,1-.85-.69v2.87a.83.83,0,0,1-.24.58.79.79,0,0,1-.58.25H36.26a4.63,4.63,0,0,1,.69,1.1H42a.82.82,0,0,1,.83.83v2.48ZM40.8,22.06a.86.86,0,0,0-.14.46.87.87,0,0,0,.24.59.84.84,0,0,0,.58.24.81.81,0,0,0,.46-.14.86.86,0,0,0,.31-.37.87.87,0,0,0,0-.48.79.79,0,0,0-.65-.65.77.77,0,0,0-.47.05A.78.78,0,0,0,40.8,22.06Zm4.26-5.88h3.29V14.52H45.06Z"/></svg>