<svg xmlns="http://www.w3.org/2000/svg" width="29" height="30" fill="none"><g stroke="#011831" stroke-linecap="round" stroke-miterlimit="10" stroke-width=".95" clip-path="url(#a)"><path d="M23.116 23.961H4.75a.974.974 0 0 0-.95.95v2.344h20.267V24.91a.974.974 0 0 0-.95-.95Zm-1.076-1.646-2.027-11.4c-.19-1.013-1.076-1.71-2.09-1.71h-7.98c-1.013 0-1.9.76-2.09 1.71l-2.026 11.4m8.106 1.647v-2.09m-.316-14.757v-4.37m8.043 5.003 3.104-3.103M6.84 7.748 3.737 4.645"/><path d="M18.177 14.778a4.598 4.598 0 0 0-4.243-2.786 4.6 4.6 0 0 0-4.244 2.786"/></g><defs><clipPath id="a"><path fill="#fff" d="M0 .75h28.5v28.5H0z"/></clipPath></defs></svg>