<?xml version="1.0" encoding="utf-8"?>
<!-- Generator: Adobe Illustrator 25.4.0, SVG Export Plug-In . SVG Version: 6.00 Build 0)  -->
<svg version="1.1" id="Layer_1" xmlns="http://www.w3.org/2000/svg" xmlns:xlink="http://www.w3.org/1999/xlink" x="0px" y="0px"
	 viewBox="0 0 44.1 50" style="enable-background:new 0 0 44.1 50;" xml:space="preserve">
<style type="text/css">
	.st0{fill:#011831;}
</style>
<path class="st0" d="M44.5,41.6c-0.3-3.5-1.6-6.5-4.2-8.9c-2.5-2.2-5.4-3.5-8.8-3.6h-0.3c-1.3,0-2.6,0.2-3.9,0.7
	c-1.7,0.5-3.5,0.8-5.2,0.8c-1.6,0-3.1-0.2-4.6-0.6c-1.2-0.3-2.4-0.7-3.5-0.8c-0.4,0-0.8,0-1.2,0c-4.4,0-7.9,1.8-10.6,5.4
	c-2.3,3.1-2.9,6.8-2.6,10.5c0.2,2.3,1.9,4,4.1,4.4c0.7,0.1,1.4,0.1,2.1,0.1l33.8,0c2.5,0,4.4-1.6,4.8-4
	C44.6,44.3,44.6,42.9,44.5,41.6L44.5,41.6z M39.8,44.9C39.8,44.9,39.8,44.9,39.8,44.9c0,0-0.1,0-0.2,0l-33.8,0c-0.5,0-1,0-1.4-0.1
	c-0.2,0-0.2-0.1-0.2-0.2c-0.2-3.1,0.3-5.5,1.7-7.4c1.8-2.4,4-3.5,6.9-3.5c0.3,0,0.6,0,0.8,0c0.4,0,1.1,0.2,1.7,0.4l1,0.3
	c1.9,0.5,3.9,0.7,5.8,0.7c2.2,0,4.4-0.3,6.6-1c1-0.3,1.8-0.4,2.5-0.4h0.2c2.2,0.1,4.1,0.9,5.8,2.4c1.6,1.5,2.5,3.4,2.7,5.8
	C40,43.1,40,44.1,39.8,44.9z M21.6,4.3c4.2,0,7.9,3.1,8.7,7.5c0.7,3.2,0,5.9-2.1,8.4c-1.6,1.9-3.8,3-5.9,3c-4.4,0-8.2-2.5-9.5-6.3
	c-1.1-3-0.8-5.7,0.8-8.2c1.5-2.4,3.6-3.8,6.6-4.2C20.6,4.3,21.1,4.3,21.6,4.3L21.6,4.3z M21.6-0.4c-0.7,0-1.4,0.1-2.1,0.2
	c-4.2,0.7-7.5,2.7-9.8,6.3c-2.5,3.9-2.8,8-1.3,12.3c2,5.6,7.4,9.4,14,9.4c3.3-0.1,6.8-1.6,9.4-4.7c3.1-3.6,4.1-7.7,3.2-12.4
	C33.6,4.6,28.2-0.4,21.6-0.4L21.6-0.4z"/>
</svg>
