<svg width="29" height="30" viewBox="0 0 29 30" fill="none" xmlns="http://www.w3.org/2000/svg">
<path fill-rule="evenodd" clip-rule="evenodd" d="M14.1274 12.2769L3.49688 22.8803C2.76362 23.5808 2.63856 24.7057 3.2001 25.5498C3.54413 26.0345 4.08458 26.343 4.67723 26.3929C5.26987 26.4429 5.85442 26.2292 6.27487 25.809C6.27487 25.809 16.975 15.1189 16.9659 15.1118C19.1492 16.1619 21.7487 15.811 23.5747 14.2196C25.4006 12.6282 26.1015 10.1027 25.3564 7.79921C25.3024 7.63002 25.1643 7.50104 24.9917 7.45865C24.8191 7.41626 24.6369 7.46656 24.5105 7.59146L20.4859 11.6113C20.3737 11.7237 20.2151 11.7767 20.0578 11.7545L18.1843 11.4873C17.9621 11.4554 17.7877 11.2807 17.7563 11.0587L17.4878 9.1869C17.4653 9.02994 17.518 8.87155 17.6301 8.7593L21.6548 4.73841C21.7798 4.61205 21.83 4.42983 21.7873 4.25736C21.7447 4.08488 21.6153 3.94698 21.4458 3.89329C19.14 3.14917 16.6122 3.84969 15.0195 5.67416C13.4269 7.49862 13.0759 10.0959 14.1274 12.2769Z" stroke="#011831" stroke-width="1.5" stroke-linecap="round" stroke-linejoin="round"/>
</svg>
