<svg id="Layer_1" data-name="Layer 1" xmlns="http://www.w3.org/2000/svg" viewBox="0 0 50 50"><defs><style>.cls-1{fill:#fff;}</style></defs><path class="cls-1" d="M25,0A25,25,0,1,0,50,25,25,25,0,0,0,25,0ZM36.44,30.75a3,3,0,0,1-2.11,2.11c-1.86.5-9.33.5-9.33.5s-7.47,0-9.33-.5a3,3,0,0,1-2.11-2.11,31,31,0,0,1-.5-5.75,31,31,0,0,1,.5-5.75,3,3,0,0,1,2.11-2.11c1.86-.5,9.33-.5,9.33-.5s7.47,0,9.33.5a3,3,0,0,1,2.11,2.11,31,31,0,0,1,.5,5.75A31,31,0,0,1,36.44,30.75Z"/><polygon class="cls-1" points="21.9 28.58 21.9 21.42 28.1 25 21.9 28.58"/></svg>