<svg id="Ebene_1" data-name="Ebene 1" xmlns="http://www.w3.org/2000/svg" viewBox="0 0 50 50"><defs><style>.cls-1{fill:#fff;}.cls-2{fill:none;}</style></defs><path class="cls-1" d="M50,25A25,25,0,1,0,21.09,49.7V32.23H14.75V25h6.34V19.49c0-6.26,3.74-9.72,9.45-9.72a39,39,0,0,1,5.59.48v6.16H33c-3.11,0-4.07,1.92-4.07,3.9V25h6.93l-1.11,7.23H28.91V49.7A25,25,0,0,0,50,25Z"/><path class="cls-2" d="M34.73,32.23,35.84,25H28.91V20.31c0-2,1-3.9,4.07-3.9h3.15V10.25a39,39,0,0,0-5.59-.48c-5.71,0-9.45,3.46-9.45,9.72V25H14.75v7.23h6.34V49.7a25.63,25.63,0,0,0,7.82,0V32.23Z"/></svg>