<svg width="65" height="65" viewBox="0 0 65 65" fill="none" xmlns="http://www.w3.org/2000/svg">
    <path d="M20.07 39.813h26.484a1.073 1.073 0 1 1 0 2.147H20.071a1.074 1.074 0 1 1 0-2.148z" fill="#011831"/>
    <path fill-rule="evenodd" clip-rule="evenodd" d="M16.134 32.655a3.58 3.58 0 1 0 0 7.159 3.58 3.58 0 0 0 0-7.16zm0 5.01a1.432 1.432 0 1 1 0-2.863 1.432 1.432 0 0 1 0 2.863zM48.503 33.258a3.579 3.579 0 1 1 3.976 5.952 3.579 3.579 0 0 1-3.976-5.952zm1.193 4.166a1.432 1.432 0 1 0 1.59-2.381 1.432 1.432 0 0 0-1.59 2.38z" fill="#011831"/>
    <path fill-rule="evenodd" clip-rule="evenodd" d="M55.144 21.202H62.3a1.073 1.073 0 0 1 1.074 1.074v4.295a1.074 1.074 0 0 1-1.074 1.073h-5.218a8.511 8.511 0 0 1 2.713 6.084v19.326a1.074 1.074 0 0 1-1.074 1.074H50.85a1.073 1.073 0 0 1-1.074-1.074v-5.368H16.85v5.368a1.073 1.073 0 0 1-1.074 1.074H7.903a1.073 1.073 0 0 1-1.074-1.074V33.728a8.51 8.51 0 0 1 2.713-6.084H4.324a1.074 1.074 0 0 1-1.074-1.073v-4.295a1.073 1.073 0 0 1 1.074-1.074h7.157a1.074 1.074 0 0 1 1.074 1.074v3.278c.097-.034.198-.053.3-.057l3.923-11.717a6.112 6.112 0 0 1 5.726-4.03h21.61a6.106 6.106 0 0 1 5.726 4.008l3.93 11.746c.102.004.203.023.3.057v-3.285a1.074 1.074 0 0 1 1.074-1.074zm-34.896-8.589a3.958 3.958 0 0 0-1.444 1.875l-3.686 11.009h36.39L47.806 14.46a3.943 3.943 0 0 0-3.686-2.563H22.504a3.959 3.959 0 0 0-2.256.716zm-9.84 10.737h-5.01v2.147h5.01V23.35zm47.24 28.63V33.729a6.578 6.578 0 0 0-4.802-6.084H13.779a6.578 6.578 0 0 0-4.803 6.084v18.253h5.726v-5.369a1.074 1.074 0 0 1 1.074-1.073h35.073a1.074 1.074 0 0 1 1.074 1.073v5.369h5.726zm-1.43-26.483h5.01V23.35h-5.01v2.147z" fill="#011831"/>
</svg>
