<svg width="65" height="65" viewBox="0 0 65 65" fill="none" xmlns="http://www.w3.org/2000/svg">
    <path d="M63.984 35.667h-.338V28a.977.977 0 0 0-.187-.573 1.001 1.001 0 0 0-.49-.36L57.925 25.2l-5.898-11.647a1 1 0 0 0-.373-.404A1.02 1.02 0 0 0 51.12 13H7.11a5.119 5.119 0 0 0-3.591 1.464A4.961 4.961 0 0 0 2.03 18v17.667H1.016c-.27 0-.528.105-.719.293a.992.992 0 0 0-.297.707V44c0 .265.107.52.297.707.19.188.45.293.719.293h5.078c0 1.856.749 3.637 2.082 4.95A7.166 7.166 0 0 0 13.203 52a7.166 7.166 0 0 0 5.027-2.05A6.946 6.946 0 0 0 20.312 45h23.021c0 1.856.75 3.637 2.083 4.95A7.166 7.166 0 0 0 50.443 52a7.166 7.166 0 0 0 5.027-2.05A6.946 6.946 0 0 0 57.552 45h6.432c.27 0 .528-.105.718-.293A.992.992 0 0 0 65 44v-7.333a.992.992 0 0 0-.297-.707 1.023 1.023 0 0 0-.719-.293zM55.568 25H42.656V15h7.834l5.078 10zM13.203 49.667a5.135 5.135 0 0 1-2.821-.843 5.018 5.018 0 0 1-1.87-2.244 4.929 4.929 0 0 1-.29-2.889c.197-.97.68-1.86 1.39-2.56a5.104 5.104 0 0 1 2.6-1.368 5.152 5.152 0 0 1 2.934.284 5.062 5.062 0 0 1 2.28 1.842c.557.822.855 1.789.855 2.778a4.961 4.961 0 0 1-1.487 3.535 5.119 5.119 0 0 1-3.59 1.465zm37.24 0a5.134 5.134 0 0 1-2.822-.843 5.018 5.018 0 0 1-1.87-2.244 4.929 4.929 0 0 1-.289-2.889c.196-.97.68-1.86 1.39-2.56a5.105 5.105 0 0 1 2.6-1.368 5.152 5.152 0 0 1 2.934.284 5.062 5.062 0 0 1 2.279 1.842c.558.822.856 1.789.856 2.778a4.961 4.961 0 0 1-1.488 3.535 5.119 5.119 0 0 1-3.59 1.465zM62.969 43h-5.627a6.984 6.984 0 0 0-2.514-3.84 7.174 7.174 0 0 0-4.385-1.493c-1.59 0-3.135.526-4.386 1.493A6.984 6.984 0 0 0 43.543 43h-23.44a6.984 6.984 0 0 0-2.514-3.84 7.173 7.173 0 0 0-4.386-1.493c-1.59 0-3.135.526-4.386 1.493A6.984 6.984 0 0 0 6.304 43H2.03v-5.333h1.016c.27 0 .528-.106.718-.293a.992.992 0 0 0 .297-.707V18a2.984 2.984 0 0 1 .895-2.12A3.078 3.078 0 0 1 7.109 15h33.516v11c0 .265.107.52.297.707.19.188.45.293.719.293h15.39l4.584 1.693v8c.007.26.117.509.306.69.19.182.444.284.71.284h.338V43z" fill="#011831"/>
</svg>
