<svg width="65" height="65" viewBox="0 0 65 65" fill="none" xmlns="http://www.w3.org/2000/svg">
    <path d="M29.455 35.303h8.126c.27 0 .527.108.718.3a1.03 1.03 0 0 1 0 1.451c-.19.192-.449.3-.718.3h-8.126c-.269 0-.527-.108-.718-.3a1.03 1.03 0 0 1 0-1.45c.19-.193.45-.3.718-.3z" fill="#011831"/>
    <path fill-rule="evenodd" clip-rule="evenodd" d="M49.092 35.529a9.727 9.727 0 0 1 6.094-2.181c2.229 0 4.391.765 6.132 2.17a9.92 9.92 0 0 1 3.444 5.565 9.993 9.993 0 0 1-.756 6.517 9.858 9.858 0 0 1-4.624 4.61 9.726 9.726 0 0 1-6.463.682 9.803 9.803 0 0 1-5.468-3.546 9.97 9.97 0 0 1-2.073-6.219 9.964 9.964 0 0 1 2.23-6.162l-1.198-1.21-7.407 8.108a1.004 1.004 0 0 1-.745.328H19.57a9.936 9.936 0 0 1-3.381 6.502 9.751 9.751 0 0 1-6.886 2.366 9.771 9.771 0 0 1-6.607-3.073A9.958 9.958 0 0 1 0 43.166c0-2.539.965-4.98 2.696-6.821a9.77 9.77 0 0 1 6.607-3.072 9.751 9.751 0 0 1 6.886 2.365 9.936 9.936 0 0 1 3.38 6.502h4.064c-.61-7.582-6.027-12.99-13.136-12.99-.043 0-.082 0-.121-.003-.423-.038-.809-.488-5.384-5.821a1.03 1.03 0 0 1 .218-1.532c.163-.106.353-.163.547-.164H21.33c.27 0 .528.108.718.3l3.088 3.118h5.85c1.726-2.119 4.976-4.245 9.54-4.696l-3.805-6.03a1.046 1.046 0 0 1 .386-1.463 13.995 13.995 0 0 1 5.89-1.484c3.772 0 6.779 1.17 8.966 3.48 3.728 3.962 3.597 9.864 3.582 10.536v.054c-.014.24-.11.467-.271.642l-7.449 8.164 1.267 1.278zM5.598 49.777a7.733 7.733 0 0 0 4.221 1.25 7.744 7.744 0 0 0 5.13-1.953 7.885 7.885 0 0 0 2.583-4.883H9.826a1.01 1.01 0 0 1-.718-.3 1.03 1.03 0 0 1 0-1.45c.19-.193.449-.301.718-.301h7.706a7.898 7.898 0 0 0-1.783-4.061 7.781 7.781 0 0 0-3.679-2.438 7.715 7.715 0 0 0-4.399-.035 7.778 7.778 0 0 0-3.716 2.378 7.896 7.896 0 0 0-1.847 4.033 7.931 7.931 0 0 0 .613 4.399 7.84 7.84 0 0 0 2.877 3.361zm20.086-7.637h12.127l15.682-17.16c0-1.299-.244-5.763-3.047-8.724-1.754-1.88-4.266-2.83-7.448-2.83a11.335 11.335 0 0 0-3.927.8l4.11 6.508a1.04 1.04 0 0 1-.344 1.434 1.015 1.015 0 0 1-.516.146c-5.079 0-8.566 2.352-10.015 4.361a1.012 1.012 0 0 1-.82.424h-6.77a1.01 1.01 0 0 1-.718-.3L20.91 23.68H7.985l.965 1.114c.845.976 1.61 1.861 2 2.304 8.071.226 14.104 6.427 14.734 15.041zm25.385 7.78a7.719 7.719 0 0 0 4.117 1.203 7.72 7.72 0 0 0 3.544-.861 7.801 7.801 0 0 0 2.767-2.398 7.928 7.928 0 0 0 1.073-7.075 7.867 7.867 0 0 0-1.929-3.123 7.766 7.766 0 0 0-3.126-1.894 7.71 7.71 0 0 0-6.988 1.206l5.417 5.47a1.019 1.019 0 0 1 .3.724 1.026 1.026 0 0 1-1.018 1.025 1.01 1.01 0 0 1-.718-.3l-5.416-5.47a7.916 7.916 0 0 0-.881 8.27 7.824 7.824 0 0 0 2.858 3.223z" fill="#011831"/>
</svg>
