<svg width="65" height="65" viewBox="0 0 65 65" fill="none" xmlns="http://www.w3.org/2000/svg">
    <path fill-rule="evenodd" clip-rule="evenodd" d="M15.735 30.018h12.128c.284 0 .556.112.756.31.201.2.314.469.314.75v11.3c0 .28-.113.55-.314.749-.2.198-.472.31-.756.31H15.735c-.284 0-.556-.112-.757-.31a1.054 1.054 0 0 1-.313-.75v-11.3c0-.28.112-.55.313-.748.2-.199.473-.31.757-.31zm1.07 11.3h9.988v-9.18h-9.988v9.18z" fill="#011831"/>
    <path fill-rule="evenodd" clip-rule="evenodd" d="m52.975 14.199 8.561 11.3a1.054 1.054 0 0 1-.294 1.536c-.169.104-.363.158-.562.158h-4.637v30.015c0 .282-.113.55-.314.75-.2.198-.473.31-.756.31H10.027c-.283 0-.556-.112-.756-.31a1.054 1.054 0 0 1-.314-.75V27.194H4.32a1.078 1.078 0 0 1-.957-.585 1.05 1.05 0 0 1 .101-1.11l8.561-11.3a1.062 1.062 0 0 1 .856-.423h26.753v-4.59c0-.282.113-.551.314-.75.2-.198.472-.31.756-.31h7.134c.284 0 .556.112.757.31.2.199.313.468.313.75v4.59h3.21a1.071 1.071 0 0 1 .857.424zM40.348 32.137V56.15h7.847V32.137h-7.847zm13.868-6.752c.2-.199.473-.31.757-.31h3.567l-6.956-9.181h-3.746c-.283 0-.556-.112-.756-.31a1.054 1.054 0 0 1-.314-.75v-4.59h-4.994v4.59c0 .281-.112.55-.313.75-.2.198-.473.31-.757.31H13.416l-6.956 9.18h3.567c.284 0 .556.112.757.311.2.199.314.468.314.75v30.014h27.11V31.078c0-.281.112-.55.313-.75.2-.198.473-.31.756-.31h9.988c.284 0 .556.112.757.31.2.2.313.469.313.75v25.071h3.567V26.134c0-.28.113-.55.314-.749z" fill="#011831"/>
</svg>
