<svg id="Layer_1" data-name="Layer 1" xmlns="http://www.w3.org/2000/svg" xmlns:xlink="http://www.w3.org/1999/xlink" width="91" height="36.93" viewBox="0 0 91 36.93"><defs><style>.cls-1{fill:none;}.cls-2{clip-path:url(#clip-path);}.cls-3,.cls-5{fill:#e40034;}.cls-4{fill:#0072ba;}.cls-5{fill-rule:evenodd;}</style><clipPath id="clip-path" transform="translate(-0.12 -0.74)"><rect class="cls-1" x="0.12" y="0.73" width="91" height="37"/></clipPath></defs><g class="cls-2"><path class="cls-3" d="M.77,37.46V35.79A3.54,3.54,0,0,0,1.94,36a2,2,0,0,0,1.91-1.47l.53-1.26L.24,23.21H2.15L5.22,31,8.3,23.21h1.9L5.65,34.63c-.85,2.1-1.8,3-3.39,3A5.27,5.27,0,0,1,.77,37.46Zm11.69-9.22a5.19,5.19,0,1,1,5.19,5.24,5.19,5.19,0,0,1-5.19-5.24Zm8.58,0a3.39,3.39,0,1,0-6.78,0,3.39,3.39,0,1,0,6.78,0Zm5.64.84V23.21h1.8v5.87A2.49,2.49,0,0,0,31,31.8a2.94,2.94,0,0,0,3-3.14V23.21h1.8V33.27H34V31.8a4,4,0,0,1-3.22,1.68C28.37,33.48,26.68,31.8,26.68,29.08Z" transform="translate(-0.12 -0.74)"/><path class="cls-4" d="M39.94,28.24A5,5,0,0,1,44.81,23a4.18,4.18,0,0,1,3.5,1.67V18.59h1.8V33.27h-1.8V31.8a4.29,4.29,0,0,1-3.5,1.68A5,5,0,0,1,39.94,28.24Zm8.37,0a3.3,3.3,0,1,0-6.57,0,3.3,3.3,0,1,0,6.57,0Zm6.37-5h1.8v1.36A4.07,4.07,0,0,1,59.77,23h.42v1.88a2.74,2.74,0,0,0-.74-.1,2.94,2.94,0,0,0-3,3.14v5.35h-1.8ZM63.29,20a1.17,1.17,0,1,1,1.16,1.15A1.17,1.17,0,0,1,63.29,20Zm.32,3.25h1.8V33.27h-1.8V23.21Zm5.1,0h1.91L73.69,31l3.07-7.75h1.91l-4,10.06H72.74Zm12.22,5A5.17,5.17,0,0,1,86,23a4.81,4.81,0,0,1,5,4.92,4.56,4.56,0,0,1-.1.95H82.83a3.43,3.43,0,0,0,3.39,2.93,4,4,0,0,0,3.08-1.46l1.16,1.15a5.3,5.3,0,0,1-4.24,2,5.22,5.22,0,0,1-5.29-5.24Zm8.26-.94a3.24,3.24,0,0,0-6.36,0Z" transform="translate(-0.12 -0.74)"/><path class="cls-3" d="M25.77,1.12A5.77,5.77,0,0,0,32,1.57c3.4-1.67,6-.78,8.28,2.32a5.72,5.72,0,0,0-6.68-1.07C30,4.7,26.75,3.29,25.77,1.12Z" transform="translate(-0.12 -0.74)"/><path class="cls-4" d="M58.78,5a3.57,3.57,0,0,1,2.6,1.06,3.5,3.5,0,0,1,0,5.08,3.59,3.59,0,0,1-2.6,1.06H56.23V5Zm-1.41,1v5.14h1.41a2.48,2.48,0,0,0,1.8-.74,2.52,2.52,0,0,0,.74-1.83,2.52,2.52,0,0,0-.74-1.83,2.45,2.45,0,0,0-1.8-.74Zm6.29-1h1.15v7.2H63.66Zm2.7,0h3.07a2.3,2.3,0,0,1,1.68.64,2.09,2.09,0,0,1,.66,1.57,2.27,2.27,0,0,1-.15.83,1.75,1.75,0,0,1-.36.6,5.22,5.22,0,0,1-.43.39,1.44,1.44,0,0,1-.37.23l-.14.06L72,12.24H70.73L69.17,9.46H67.51v2.78H66.36V5Zm3.92,1.37a1.12,1.12,0,0,0-.85-.34H67.51V8.43h1.92a1.16,1.16,0,0,0,.85-.33,1.19,1.19,0,0,0,.35-.85,1.12,1.12,0,0,0-.35-.84Zm7.94,4.8v1H73V5h5.15v1h-4V8h3.18V9H74.11v2.21Zm5.22-6.13a3,3,0,0,1,.84.35,5,5,0,0,1,.59.41,3.11,3.11,0,0,1,.36.34l.11.14-.72.73-.09-.12a2.23,2.23,0,0,0-.27-.26,2,2,0,0,0-.44-.33,3.48,3.48,0,0,0-.63-.26A2.44,2.44,0,0,0,82.38,6a2.63,2.63,0,0,0-1.92.77,2.56,2.56,0,0,0-.78,1.9,2.58,2.58,0,0,0,.78,1.9,2.63,2.63,0,0,0,1.92.78,2.76,2.76,0,0,0,.82-.12,2.56,2.56,0,0,0,.64-.28,4.58,4.58,0,0,0,.46-.33,3.83,3.83,0,0,0,.29-.28l.08-.13.73.73-.12.15a4.89,4.89,0,0,1-.37.35,6.25,6.25,0,0,1-.61.44,4.19,4.19,0,0,1-.85.34,3.89,3.89,0,0,1-1.07.15,3.8,3.8,0,0,1-2.74-1.07,3.54,3.54,0,0,1-1.11-2.63A3.52,3.52,0,0,1,79.64,6a3.77,3.77,0,0,1,2.74-1.08,4,4,0,0,1,1.06.15Zm7.68,0v1H88.93v6.17H87.79V6.07H85.61V5Z" transform="translate(-0.12 -0.74)"/><path class="cls-5" d="M27.52,11A3.13,3.13,0,0,1,27,11a.67.67,0,0,1-.28-.06.49.49,0,0,1-.2-.18,1,1,0,0,1-.13-.33,2.92,2.92,0,0,1,0-.51V6.28H28L28.17,5H26.38V3.17h-1.3L24.62,5l-1.07.36v.88h1.07v3.88a4.42,4.42,0,0,0,.1.93,1.74,1.74,0,0,0,.32.7,1.61,1.61,0,0,0,.62.45,2.89,2.89,0,0,0,1,.15,2.59,2.59,0,0,0,.92-.18,3.69,3.69,0,0,0,1-.54l-.4-.85A5.55,5.55,0,0,1,27.52,11ZM22.73,9.12a2.05,2.05,0,0,0-.38-.4,3,3,0,0,0-.84-.46l-.35-.13-.57-.2L20,7.74l-.36-.13a1.87,1.87,0,0,1-.31-.17.84.84,0,0,1-.23-.23A.48.48,0,0,1,19,6.9a.73.73,0,0,1,.06-.3.63.63,0,0,1,.19-.26.77.77,0,0,1,.33-.18,1.45,1.45,0,0,1,.49-.07,2.77,2.77,0,0,1,.6.06,2.84,2.84,0,0,1,.49.17c.14.09.28.18.42.29s.27.23.41.37l.79-1.22a3.48,3.48,0,0,0-1.25-.65,5.61,5.61,0,0,0-1.52-.19A4.31,4.31,0,0,0,19,5a3,3,0,0,0-.89.37,1.91,1.91,0,0,0-.63.6,1.58,1.58,0,0,0-.24.85,1.83,1.83,0,0,0,.12.68,1.86,1.86,0,0,0,.3.53,1.94,1.94,0,0,0,.41.4,4,4,0,0,0,.47.29A3.68,3.68,0,0,0,19,9l.37.14.55.2.55.2.3.13a1.32,1.32,0,0,1,.26.18.74.74,0,0,1,.2.23.61.61,0,0,1,.08.3.82.82,0,0,1-.09.4A.84.84,0,0,1,21,11a1.34,1.34,0,0,1-.37.16,2.42,2.42,0,0,1-.47.05A2.89,2.89,0,0,1,18,10.14l-1,1.14a3.71,3.71,0,0,0,.66.55,3.53,3.53,0,0,0,.74.34,3.62,3.62,0,0,0,.82.18,6.77,6.77,0,0,0,.92.06,4.3,4.3,0,0,0,1.07-.14,3.51,3.51,0,0,0,.93-.39,2,2,0,0,0,.65-.64,1.57,1.57,0,0,0,.25-.89,2.12,2.12,0,0,0-.1-.7A2.07,2.07,0,0,0,22.73,9.12Zm-6.42,2.06a.87.87,0,0,1-.2,0,.9.9,0,0,1-.25,0A.4.4,0,0,1,15.7,11a.69.69,0,0,1-.1-.25c0-.13,0-.26,0-.39V7.18a1.94,1.94,0,0,0-.25-1,2,2,0,0,0-.67-.71,3.39,3.39,0,0,0-1-.41,4.76,4.76,0,0,0-1.12-.13,4.89,4.89,0,0,0-1.67.29A4.1,4.1,0,0,0,9.55,6l.93,1A5.15,5.15,0,0,1,11,6.59a3.35,3.35,0,0,1,.48-.3A2.14,2.14,0,0,1,12,6.14a2.45,2.45,0,0,1,.48,0,1.59,1.59,0,0,1,.55.08,1.06,1.06,0,0,1,.71.64,1.63,1.63,0,0,1,.1.61v.26c-.38,0-.76,0-1.12,0a8.26,8.26,0,0,0-1,.16,4.33,4.33,0,0,0-.92.31,2.39,2.39,0,0,0-.72.5,2.34,2.34,0,0,0-.48.71,2.5,2.5,0,0,0-.17,1,2.28,2.28,0,0,0,.15.86,1.54,1.54,0,0,0,.43.62,1.79,1.79,0,0,0,.66.38,3,3,0,0,0,.89.13c.19,0,.39,0,.59,0a3.39,3.39,0,0,0,1.23-.42,3.27,3.27,0,0,0,.59-.43,1,1,0,0,0,.43.66,1.52,1.52,0,0,0,.85.23,2.92,2.92,0,0,0,1.27-.29l.33-.19-.18-.77-.29,0Zm-2.49-.52a3.14,3.14,0,0,1-.44.25,1.92,1.92,0,0,1-.42.16,2.07,2.07,0,0,1-.41.07,2.55,2.55,0,0,1-.39,0,1.2,1.2,0,0,1-.38-.05.69.69,0,0,1-.3-.17.72.72,0,0,1-.2-.31,1.35,1.35,0,0,1-.06-.49,1.69,1.69,0,0,1,.11-.64,1.14,1.14,0,0,1,.41-.5,2.29,2.29,0,0,1,.8-.35,6.16,6.16,0,0,1,1.28-.17v2.18Z" transform="translate(-0.12 -0.74)"/><path class="cls-3" d="M31.41,5H29.65v7.22h1.76V5Z" transform="translate(-0.12 -0.74)"/><path class="cls-5" d="M45.71,5.34l-.44-.18a3.51,3.51,0,0,0-.83-.22l-.52,0a4.27,4.27,0,0,0-1.21.16,2.79,2.79,0,0,0-1,.48,2.26,2.26,0,0,0-.63.78,2.32,2.32,0,0,0-.23,1A3,3,0,0,0,41,8a2.34,2.34,0,0,0,.17.53,2,2,0,0,0,.32.45,2.71,2.71,0,0,0,.46.42,2.28,2.28,0,0,0-.47.23,2,2,0,0,0-.39.3,1.27,1.27,0,0,0-.25.37,1,1,0,0,0-.09.43,1.06,1.06,0,0,0,.13.56,1.55,1.55,0,0,0,.33.39,1.85,1.85,0,0,0,.4.24l.35.18-.53.32a2.16,2.16,0,0,0-.46.39,1.72,1.72,0,0,0-.33.51,1.57,1.57,0,0,0-.13.65,1,1,0,0,0,.18.59,1.42,1.42,0,0,0,.55.46,3.35,3.35,0,0,0,.94.3,7.71,7.71,0,0,0,1.36.11c.29,0,.58,0,.89,0a5.54,5.54,0,0,0,.91-.13,4.81,4.81,0,0,0,.84-.26,2.28,2.28,0,0,0,.69-.42A1.83,1.83,0,0,0,47.3,14a2,2,0,0,0,.18-.88,1.44,1.44,0,0,0-.13-.64A1.39,1.39,0,0,0,47,12a2,2,0,0,0-.55-.32,5.11,5.11,0,0,0-.66-.22,6.1,6.1,0,0,0-.72-.14l-.72-.12-.46-.08L43.38,11l-.49-.12a2,2,0,0,1-.41-.14,1.11,1.11,0,0,1-.29-.15.21.21,0,0,1-.12-.17.67.67,0,0,1,.11-.37,1.27,1.27,0,0,1,.25-.27,2.79,2.79,0,0,0,.65.2,5.22,5.22,0,0,0,1,.08A2.6,2.6,0,0,0,45,9.9a2.87,2.87,0,0,0,.85-.48,2.67,2.67,0,0,0,.64-.78,2.14,2.14,0,0,0,.25-1.05,2.47,2.47,0,0,0-.13-.89,1.71,1.71,0,0,0-.29-.57l1.25.2L47.81,5a8.74,8.74,0,0,0-1,.06,6.85,6.85,0,0,0-1.11.24ZM42.1,13.19a1.81,1.81,0,0,1,.09-.31,1.51,1.51,0,0,1,.15-.28,1.42,1.42,0,0,1,.24-.25l.76.1c.53.09,1.06.2,1.58.33a2.56,2.56,0,0,1,.51.16,1,1,0,0,1,.33.2.36.36,0,0,1,.12.27,1,1,0,0,1-.11.45,1,1,0,0,1-.36.36,2.39,2.39,0,0,1-.69.25,5.41,5.41,0,0,1-1.07.09,1.65,1.65,0,0,1-.58-.1,1.78,1.78,0,0,1-.5-.24,1.33,1.33,0,0,1-.36-.35.68.68,0,0,1-.13-.4,1,1,0,0,1,0-.29ZM45,8a1.37,1.37,0,0,1-.16.52.84.84,0,0,1-.34.36,1.14,1.14,0,0,1-.59.14,1.29,1.29,0,0,1-.62-.14,1.22,1.22,0,0,1-.41-.37A1.52,1.52,0,0,1,42.6,8a2.7,2.7,0,0,1-.07-.63,1.48,1.48,0,0,1,.33-1.06,1.12,1.12,0,0,1,.87-.36,1.24,1.24,0,0,1,.94.35A1.63,1.63,0,0,1,45,7.41,5.86,5.86,0,0,1,45,8Zm9,1.63a2,2,0,0,0-.27-.53,2.4,2.4,0,0,0-.38-.4,2.54,2.54,0,0,0-.43-.27,2.6,2.6,0,0,0-.42-.19l-.35-.13-.57-.2-.57-.19-.35-.13a2,2,0,0,1-.32-.17.8.8,0,0,1-.22-.23A.56.56,0,0,1,50,6.9a.75.75,0,0,1,.25-.57,1.2,1.2,0,0,1,.34-.18A1.65,1.65,0,0,1,51,6.09a2.64,2.64,0,0,1,.6.06,2.35,2.35,0,0,1,.49.17,3.13,3.13,0,0,1,.42.29c.13.11.27.23.41.37l.79-1.22a3.4,3.4,0,0,0-1.25-.65A5.56,5.56,0,0,0,51,4.92,4.31,4.31,0,0,0,50,5a3.09,3.09,0,0,0-.89.37,2.12,2.12,0,0,0-.63.6,1.49,1.49,0,0,0-.23.85,1.83,1.83,0,0,0,.11.68,2.06,2.06,0,0,0,.72.93,3.21,3.21,0,0,0,.46.29A3.68,3.68,0,0,0,50,9l.37.14.56.2.54.2.3.13a1.81,1.81,0,0,1,.27.18.74.74,0,0,1,.2.23.66.66,0,0,1,.07.3.82.82,0,0,1-.09.4.75.75,0,0,1-.25.28,1.25,1.25,0,0,1-.37.16,2.42,2.42,0,0,1-.47.05A2.91,2.91,0,0,1,49,10.14l-1,1.14a3.44,3.44,0,0,0,.67.55,3.31,3.31,0,0,0,.74.34,3.4,3.4,0,0,0,.82.18,6.52,6.52,0,0,0,.91.06,4.3,4.3,0,0,0,1.07-.14,3.38,3.38,0,0,0,.93-.39,2,2,0,0,0,.65-.64,1.57,1.57,0,0,0,.25-.89A2.15,2.15,0,0,0,53.93,9.65Zm-15-4.06a2.61,2.61,0,0,0-.85-.5A3.46,3.46,0,0,0,37,4.92a3.18,3.18,0,0,0-1.25.26,3.36,3.36,0,0,0-.5.26,4,4,0,0,0-.39.29l0-.18c0-.07,0-.14,0-.2s0-.12-.05-.18a.5.5,0,0,0,0-.13H33.07a5.05,5.05,0,0,1,.08.68v6.53h1.76V6.67a3.89,3.89,0,0,1,.41-.18l.44-.14a3.58,3.58,0,0,1,.45-.09l.4,0a2,2,0,0,1,.58.08,1.17,1.17,0,0,1,.42.27,1.22,1.22,0,0,1,.26.48A2.66,2.66,0,0,1,38,7.8v4.45h1.76V7.47A2.59,2.59,0,0,0,39.5,6.4a2.17,2.17,0,0,0-.57-.8ZM6.36,1.78v4H2v-4H.12V12.25H2v-5H6.36v5H8.21V1.78Z" transform="translate(-0.12 -0.74)"/></g></svg>